<svg height="282.289745" viewBox="0 0 95.33721 75.97674" width="354.245954" xmlns="http://www.w3.org/2000/svg" xmlns:xlink="http://www.w3.org/1999/xlink"><clipPath id="a"><path d="m-716.43023-612.77326h1224v792h-1224z"/></clipPath><g clip-path="url(#a)"><g fill="#007066"><path d="m28.38855 38.38234a9.92932 9.92932 0 0 0 -.172-2.293c-.224-.586-.99-.586-1.542-.586v-.583h9.158v2.661h-.455c-.308-1.893-1.473-1.96-2.992-1.96h-1.242c-.534 0-.448-.052-.448.707v3.849c2.176.097 2.525-.875 2.634-2.179h.514c-.017.776-.035 1.627-.069 2.403.034.707.052 1.55.069 2.257h-.514c-.231-1.728-1.099-1.896-2.634-1.896v2.532a3.71873 3.71873 0 0 0 .311 1.859c.448.604 1.516.638 2.206.62 1.429-.028 2.797-.333 3.012-2.31h.456l-.037 2.835h-9.26v-.455a1.0712 1.0712 0 0 0 .892-.645 9.50545 9.50545 0 0 0 .113-2.235z"/><path d="m56.51685 54.14445a9.92871 9.92871 0 0 0 -.17206-2.293c-.224-.585-.99-.585-1.542-.585v-.584h9.16v2.661h-.457c-.306-1.893-1.471-1.96-2.992-1.96h-1.24c-.535 0-.45-.052-.45.707v3.851c2.176.095 2.525-.877 2.634-2.181h.513c-.016.776-.033 1.627-.068 2.403.035.707.052 1.55.068 2.257h-.513c-.231-1.728-1.099-1.897-2.634-1.897v2.533a3.70273 3.70273 0 0 0 .312 1.858c.447.604 1.516.639 2.206.621 1.428-.027 2.796-.333 3.01105-2.31h.457l-.038 2.835h-9.25999v-.455a1.06991 1.06991 0 0 0 .892-.645 9.50206 9.50206 0 0 0 .113-2.234z"/><path d="m78.24488 54.14445a9.87382 9.87382 0 0 0 -.173-2.293c-.223-.585-.989-.585-1.541-.585v-.584h9.158v2.661h-.455c-.307-1.893-1.473-1.96-2.992-1.96h-1.242c-.534 0-.448-.052-.448.707v3.851c2.176.095 2.525-.877 2.634-2.181h.513c-.016.776-.033 1.627-.068 2.403.035.707.052 1.55.068 2.257h-.513c-.231-1.728-1.099-1.897-2.634-1.897v2.533a3.713 3.713 0 0 0 .311 1.858c.448.604 1.516.639 2.206.621 1.429-.027 2.796-.333 3.012-2.31h.457l-.038 2.835h-9.26v-.455a1.07118 1.07118 0 0 0 .892-.645 9.50206 9.50206 0 0 0 .113-2.234z"/><path d="m41.065 43.21115a3.58978 3.58978 0 0 0 .276 1.914c.396.586 1.098.596 1.752.596 2.663 0 3.131-2.205 3.131-4.606 0-3.21-.946-5.7-4.021-5.7-.207 0-.88-.033-1.035.12-.103.104-.103.398-.103.535zm-2.249-4.951a10.99468 10.99468 0 0 0 -.155-2.293c-.189-.604-.913-.585-1.465-.585v-.491c.707.017 1.684.052 2.408.069.932-.017 2.097-.052 3.029-.069 3.637-.07 6.278 2.207 6.278 5.948 0 3.656-2.279 5.552-5.829 5.464-1.018-.016-2.289-.051-3.306-.068-.792.017-1.804.052-2.58.068v-.455c.552 0 1.276 0 1.465-.586a10.9851 10.9851 0 0 0 .155-2.292z"/><path d="m49.96247 38.22565a8.589 8.589 0 0 0 -.05506-2.115c-.223-.587-1.04895-.765-1.6-.765v-.455c.828.017 1.892.052 2.719.069.879-.017 1.86-.052 2.721-.069v.455a1.55059 1.55059 0 0 0 -1.482.823 8.07858 8.07858 0 0 0 -.054 2.057v4.744a8.41145 8.41145 0 0 0 .113 2.115c.224.587 1.227.765 1.777.765v.455c-.81-.017-2.127-.052-2.955-.069-.862.017-2.095.052-2.958.069v-.455c.551 0 1.437-.119 1.661-.705a9.00146 9.00146 0 0 0 .113-2.175z"/><path d="m63.15876 34.86075h.49395l.139 3.278h-.516a3.36156 3.36156 0 0 0 -3.342-3.022c-3.223 0-3.897 3-3.897 5.697 0 2.439 1.009 5.143 3.992 5.143 2.188 0 3.145-1.877 3.514-3.793h.486v3.894h-.4l-.414-.939a4.9813 4.9813 0 0 1 -3.751 1.47c-3.74 0-6.114-2.488-6.114-5.775 0-4.02 2.641-6.271 6.269-6.271a5.17719 5.17719 0 0 1 3.264 1.009z"/><path d="m70.81733 41.75546-1.779-4.568-1.795 4.568zm-3.894 1.041a7.59931 7.59931 0 0 0 -.652 2.307c0 .632.835.751 1.339.801v.457c-.638-.017-1.377-.052-2.015-.07-.603.018-1.366.053-1.969.07v-.457a2.18962 2.18962 0 0 0 1.71405-1.223c.482-1.104.947-2.131 1.43-3.235l2.638-6.775h.882l3.48205 8.699a12.63182 12.63182 0 0 0 .896 1.896 1.90139 1.90139 0 0 0 1.483.638v.457c-.811-.017-1.815-.052-2.625-.07-.828.018-2.028.053-2.855.07v-.457c.359-.012 1.328-.282 1.328-.773a8.46807 8.46807 0 0 0 -.345-1.226l-.673-1.54h-3.903z"/><path d="m77.36475 38.24934a9.37341 9.37341 0 0 0 -.231-2.234c-.224-.586-.873-.645-1.424-.645v-.456c.828.017 1.757.052 2.584.069.879-.017 1.919-.052 2.798-.069v.456c-.553 0-1.21405-.014-1.437.572a10.09106 10.09106 0 0 0 -.1 2.307v4.867c0 2.208.168 2.569 2.356 2.569a3.95264 3.95264 0 0 0 2.154-.312 3.1546 3.1546 0 0 0 1.298-2.156h.429l-.155 3.111c-.293-.017-.602-.035-.896-.069-2.964.052-6.065.052-9.031.069v-.455c.551 0 1.318-.178 1.542-.765a8.50644 8.50644 0 0 0 .113-2.115z"/><path d="m35.70905 54.066a9.37339 9.37339 0 0 0 -.231-2.234c-.224-.587-.873-.646-1.424-.646v-.455c.827.017 1.756.052 2.583.069.879-.017 1.919-.052 2.798-.069v.455c-.552 0-1.213-.013-1.437.573a10.15051 10.15051 0 0 0 -.1 2.307v4.867c0 2.207.167 2.569 2.357 2.569a3.94817 3.94817 0 0 0 2.153-.313 3.15225 3.15225 0 0 0 1.298-2.155h.43l-.155 3.111c-.293-.017-.602-.035-.897-.069-2.965.052-6.065.052-9.03.069v-.455c.551 0 1.318-.178 1.542-.765a8.50647 8.50647 0 0 0 .113-2.115z"/><path d="m46.49457 54.066a9.37339 9.37339 0 0 0 -.231-2.234c-.224-.587-.873-.646-1.424-.646v-.455c.827.017 1.756.052 2.583.069.879-.017 1.918-.052 2.798-.069v.455c-.552 0-1.213-.013-1.437.573a10.14958 10.14958 0 0 0 -.10095 2.307v4.867c0 2.207.168 2.569 2.358 2.569a3.94822 3.94822 0 0 0 2.153-.313 3.13951 3.13951 0 0 0 1.296-2.155h.43194l-.154 3.111c-.294-.017-.604-.035-.89795-.069-2.965.052-6.065.052-9.03.069v-.455c.551 0 1.318-.178 1.542-.765a8.507 8.507 0 0 0 .113-2.115z"/><path d="m24.35523 56.59624c0 2.502.983 5.396 3.969 5.396 2.795 0 3.528-3.208 3.528-5.448 0-2.422-.638-5.49-3.631-5.49-2.599 0-3.866 2.385-3.866 5.542m-2.628 0c0-3.814 3.086-6.125 6.564-6.125a6.03286 6.03286 0 1 1 -.129 12.046c-3.444 0-6.435-2.25-6.435-5.921"/><path d="m75.30359 53.99844h-.539c-.412-2.201-1.712-3.091-3.38-3.091-3.06 0-3.848 3.055-3.848 5.71 0 2.244.823 5.119 3.575 5.119 1.724 0 2.703-.809 2.703-2.586 0-1.155-.432-1.379-1.484-1.465v-.456h4.991v.456c-.932-.017-1.18695.449-1.18695 1.31v1.946a4.12944 4.12944 0 0 0 -2.609.783 5.68425 5.68425 0 0 1 -2.706.655c-3.513 0-5.912-2.219-5.912-5.798a5.98337 5.98337 0 0 1 6.152-6.307 5.52844 5.52844 0 0 1 3.469 1.027l.361-.716h.485z"/><path d="m2.35523 71.03274c0 2.082.803 4.368 3.11 4.368 2.373 0 2.942-2.509 2.942-4.41 0-2.039-.721-4.395-3.026-4.395-2.413 0-3.026 2.632-3.026 4.437m-2.157 0a4.94664 4.94664 0 0 1 5.239-4.872 5.0348 5.0348 0 0 1 5.186 4.774 4.95713 4.95713 0 0 1 -5.242 4.901 4.9937 4.9937 0 0 1 -5.183-4.803"/><path d="m56.17518 71.03274c0 2.082.802 4.368 3.11 4.368 2.373 0 2.94-2.509 2.94-4.41 0-2.039-.719-4.395-3.023-4.395-2.415 0-3.027 2.632-3.027 4.437m-2.157 0a4.94665 4.94665 0 0 1 5.239-4.872 5.03481 5.03481 0 0 1 5.186 4.774 5.22613 5.22613 0 0 1 -10.425.098"/><path d="m17.63654 68.59184h-.32c-.169-.601-.308-1.186-.936-1.451a4.47952 4.47952 0 0 0 -1.888-.252c-1.117 0-1.075-.098-1.101.782v3.007c1.351.061 1.863-.265 2.156-1.57h.43805c-.013.628-.028 1.27-.056 1.897.028.573.043 1.159.056 1.732h-.43805c-.21295-1.59-.651-1.495-2.156-1.495v1.7a6.5673 6.5673 0 0 0 .079 1.665c.21.558.894.624 1.383.652v.379c-.713-.013-1.556-.041-2.268-.055-.712.014-1.587.042-2.326.055v-.379c.446 0 1.078-.06 1.259-.533a7.574 7.574 0 0 0 .081-1.798v-3.817a7.55463 7.55463 0 0 0 -.081-1.796c-.181-.475-.813-.535-1.259-.535v-.38c.851.015 1.852.043 2.675.057 1.493-.014 2.985-.042 4.479-.057z"/><path d="m26.85144 69.12015-1.009 3.434c-.377 1.116-.768 2.219-1.145 3.335h-.59295l-2.441-7.447a4.80922 4.80922 0 0 0 -.457-1.239 1.12891 1.12891 0 0 0 -.945-.422v-.38c.669.014 1.338.042 2.009.056.683-.014 1.5-.042 2.182-.056v.38c-.446.041-1.197.041-1.197.684a12.18989 12.18989 0 0 0 .478 1.702l1.291 4.058 2.097-6.824h.624l2.226 6.578.803-2.356a18.858 18.858 0 0 0 .739-2.907c0-.865-.384-.865-1.082-.935v-.38c.503.014 1.005.042 1.508.056.488-.014.963-.042 1.451-.056v.38c-1.032-.027-1.22895 1.06-1.451 1.842l-2.184 7.266h-.725z"/><path d="m34.61048 69.11124a7.97972 7.97972 0 0 0 -.14-1.855c-.18-.476-.753-.476-1.2-.476v-.379c.671.014 1.518.041 2.187.056.711-.015 1.468-.042 2.166-.056v.379c-.447 0-1.019.06-1.2.535a7.65682 7.65682 0 0 0 -.021 1.796v3.817a7.068 7.068 0 0 0 .08 1.737c.182.475.812.592 1.258.592v.381c-.654-.014-1.516-.042-2.185-.055-.699.013-1.587.041-2.285.055v-.381c.447 0 1.078-.117 1.26-.592a7.11623 7.11623 0 0 0 .08-1.737z"/><path d="m38.11567 72.81954h.43994c.278 1.41 1.032 2.537 2.636 2.537a1.6463 1.6463 0 0 0 1.877-1.686c0-1.169-1.253-1.714-2.121-2.058-1.27-.489-2.682-1.276-2.682-2.867a2.724 2.724 0 0 1 2.94-2.571 3.37322 3.37322 0 0 1 2.047.653l.322-.545h.272l.129 2.591h-.382c-.32-1.157-.916-2.205-2.269-2.205a1.41688 1.41688 0 0 0 -1.574 1.421c0 1.103 1.066 1.266 1.914 1.665 1.831.859 3.012 1.413 3.012 3.329 0 1.717-1.386 2.709-3.513 2.709a3.6068 3.6068 0 0 1 -2.383-.72l-.276.467h-.389z"/><path d="m81.68049 69.11124a7.97972 7.97972 0 0 0 -.14-1.855c-.18-.476-.753-.476-1.2-.476v-.379c.671.014 1.518.041 2.187.056.711-.015 1.468-.042 2.166-.056v.379c-.446 0-1.01794.06-1.2.535a7.71256 7.71256 0 0 0 -.02 1.796v3.817a7.06985 7.06985 0 0 0 .079 1.737c.182.475.812.592 1.258.592v.381c-.654-.014-1.516-.042-2.185-.055-.697.013-1.586.041-2.285.055v-.381c.447 0 1.078-.117 1.26-.592a7.11623 7.11623 0 0 0 .08-1.737z"/><path d="m73.82068 72.81954h.439c.279 1.41 1.033 2.537 2.637 2.537a1.64721 1.64721 0 0 0 1.87695-1.686c0-1.169-1.253-1.714-2.121-2.058-1.27-.489-2.682-1.276-2.682-2.867a2.72461 2.72461 0 0 1 2.94-2.571 3.38123 3.38123 0 0 1 2.049.653l.32-.545h.272l.128 2.591h-.381c-.32-1.157-.916-2.205-2.269-2.205a1.41636 1.41636 0 0 0 -1.574 1.421c0 1.103 1.066 1.266 1.914 1.665 1.831.859 3.012 1.413 3.012 3.329 0 1.717-1.387 2.709-3.513 2.709a3.6068 3.6068 0 0 1 -2.383-.72l-.276.467h-.389z"/><path d="m52.86585 66.38374h.327l.112 2.69h-.322c-.579-1.498-.866-2.46-2.884-2.46-2.36 0-2.955 2.438-2.955 4.504 0 1.806.774 4.176 2.983 4.176 1.953 0 2.606-1.395 3.025-3.07h.369v3.115h-.299l-.335-.652a4.82987 4.82987 0 0 1 -7.901-3.569 4.70165 4.70165 0 0 1 5.001-5.003 4.04554 4.04554 0 0 1 2.597.807z"/><path d="m65.21119 67.61835a1.51765 1.51765 0 0 0 -1.462-.837v-.38c.447.014.997.042 1.444.055.362-.013.858-.041 1.279-.055l5.68 6.832v-3.466a12.143 12.143 0 0 0 -.126-2.149c-.168-.781-.425-.725-1.124-.837v-.38c.517.014 1.019.042 1.536.055.487-.013.962-.041 1.478-.055v.38c-.516.056-.879.014-1.061.614a13.7565 13.7565 0 0 0 -.167 2.442v5.955h-.655c-.306-.377-.732-.887-1.039-1.277l-5.247-6.317v4.45a7.108 7.108 0 0 0 .151 1.919c.198.561.756.635 1.273.691v.379c-.53-.013-1.135-.04-1.663-.055-.517.015-1.093.042-1.609.055v-.379c.544-.056 1.177-.192 1.258-.802a14.54829 14.54829 0 0 0 .054-1.808z"/><path d="m86.53278 67.61835a1.51669 1.51669 0 0 0 -1.462-.837v-.38c.447.014.997.042 1.444.055.362-.013.858-.041 1.28-.055l5.68 6.832v-3.466a12.14774 12.14774 0 0 0 -.126-2.149c-.168-.781-.426-.725-1.125-.837v-.38c.517.014 1.02.042 1.535.055.488-.013.963-.041 1.48-.055v.38c-.517.056-.879.014-1.061.614a13.665 13.665 0 0 0 -.167 2.442v5.955h-.655c-.307-.377-.73206-.887-1.039-1.277l-5.248-6.317v4.45a7.10837 7.10837 0 0 0 .151 1.919c.198.561.757.635 1.273.691v.379c-.53-.013-1.132-.04-1.663-.055-.517.015-1.092.042-1.609.055v-.379c.545-.056 1.178-.192 1.259-.802a14.73788 14.73788 0 0 0 .053-1.808z"/><path d="m24.98584 43.61284c0 1.503-.125 2.061 1.736 2.216v.591c-1.067-.021-2.072-.061-3.078-.082-1.027.021-2.014.061-3.04.082v-.591c1.587-.131 1.796-.572 1.796-2.216v-8.063h-.042l-2.222 5.077c-.861 1.971-1.644 3.822-2.506 5.793h-.5l-4.752-10.81h-.04v7.695c0 1.487.29895 2.448 1.852 2.524v.591c-.759-.021-1.519-.061-2.278-.082-.718.021-1.437.061-2.155.082v-.591a1.62421 1.62421 0 0 0 1.846-1.868v-8.506a4.34935 4.34935 0 0 0 -.184-1.335c-.268-.697-1.226-.697-1.883-.697v-.591c.697.042 1.67.062 2.367.083.638-.021 1.43-.041 2.067-.083l4.279 9.977 4.274-9.977c.636.042 1.529.062 2.165.083.657-.021 1.55-.041 2.268-.083v.552c-.657 0-1.458.08-1.764.757a7.06859 7.06859 0 0 0 -.206 2.219z"/><path d="m20.17279 48.49545h.545l.164 4.102h-.531a4.125 4.125 0 0 0 -4.272-3.702c-3.88-.014-4.487 4.458-4.487 6.771 0 3.004 1.236 6.285 4.706 6.285 2.733 0 3.773-2.234 4.358-4.574h.546v4.672h-.444l-.493-1.047a7.70156 7.70156 0 0 1 -4.475 1.716c-3.975 0-7.354-2.236-7.354-7.052a7.08412 7.08412 0 0 1 7.478-7.479 7.08611 7.08611 0 0 1 3.93 1.272z"/><path d="m46.63269 21.58314a.54948.54948 0 0 0 -.565.49.488.488 0 0 0 .352.474c.224.102.703.319 1.218.551-.006-.337-.014-.699-.02295-1.08a3.64182 3.64182 0 0 0 -.982-.435"/><path d="m48.19019 21.14755a2.10148 2.10148 0 0 0 .81995.272c.314 0 .552-.147.566-.45.014-.288-.11805-.509-.504-.682l-.856-.358c-.008.421-.017.825-.02594 1.218"/></g><path d="m50.19568 8.49925c-.006-.475-.075-.706-1.151-1.131-.138-.055-.325-.132-.543-.228-.013.533-.025 1.135-.04 1.785a1.90477 1.90477 0 0 0 .947.279.70919.70919 0 0 0 .78705-.705" fill="#fff"/><path d="m46.626 9.83655c-.442 0-.72406.139-.72406.696 0 .344.069.648.882 1 .185.08.391.168.605.263-.014-.585-.027-1.152-.03894-1.697a1.46559 1.46559 0 0 0 -.724-.262" fill="#007066"/><path d="m48.31525 15.49794a1.90832 1.90832 0 0 0 .83795.274.6341.6341 0 0 0 .712-.641c0-.502-.359-.689-.758-.848-.171-.068-.433-.189-.758-.334q-.01657.771-.034 1.549" fill="#007066"/><path d="m46.494 16.37215a.5198.5198 0 0 0 -.565.538c0 .323.217.481.54394.648l1.053.465q-.015-.666-.029-1.347a2.25571 2.25571 0 0 0 -1.003-.304" fill="#007066"/><path d="m66.07959 3.49016c-1.986.182-5.334-.859-7.174-1.546-3.146-1.172-8.252-2.859-10.96-.173-2.696-2.697-7.809-1.031-10.961.129-1.841.68-5.193 1.707-7.18 1.517l-6.359 23.047c1.396.312 6.415-.065 9.239-.896 4.737-1.393 11.59295-2.227 15.20794 2.412 3.635-4.624 10.488-3.765 15.221-2.352 2.819.844 7.838 1.239 9.23505.932zm-23.755 17.828-.192-.028a17.63074 17.63074 0 0 0 -7.244.207 43.927 43.927 0 0 1 -7.023 1.448l-.102-.001a.49.49 0 1 1 .003-.98l.138-.017a44.48642 44.48642 0 0 0 6.893-1.428 18.46557 18.46557 0 0 1 7.317-.207l.212.028a.489.489 0 1 1 -.002.978m.137-3.472-.211.009a19.37515 19.37515 0 0 0 -6.893.428 39.90745 39.90745 0 0 1 -6.673 1.466h-.10206a.49.49 0 1 1 .00306-.98l.138-.017a40.76035 40.76035 0 0 0 6.451-1.412 20.176 20.176 0 0 1 7.077-.502l.211.026a.491.491 0 1 1 -.001.982m.136-3.437-.192.01a16.49986 16.49986 0 0 0 -6.394.632 41.55554 41.55554 0 0 1 -6.472 1.503h-.1a.4895.4895 0 1 1 .001-.979l.139-.018a43.38357 43.38357 0 0 0 5.785-1.339 19.66547 19.66547 0 0 1 7.023-.817l.212.028a.49.49 0 1 1 -.002.98m.119-3.494-.157.02a19.69544 19.69544 0 0 0 -6.432.994 29.44709 29.44709 0 0 1 -5.785 1.413l-.103-.001a.49.49 0 0 1 .002-.98l.139-.017a34.92491 34.92491 0 0 0 5.62-1.377 20.38855 20.38855 0 0 1 6.524-1.012l.194-.018a.489.489 0 0 1 -.002.978m.099-3.444-.156.019a23.1919 23.1919 0 0 0 -6.619 1.427 26.87671 26.87671 0 0 1 -4.917 1.211h-.101a.48951.48951 0 1 1 .002-.979l.138-.02a23.5496 23.5496 0 0 0 5.066-1.282 21.6287 21.6287 0 0 1 6.395-1.336l.195-.018a.489.489 0 1 1 -.003.978m.138-3.473-.159.018a26.36405 26.36405 0 0 0 -5.879 1.578 26.188 26.188 0 0 1 -4.935 1.356h-.102a.48951.48951 0 0 1 .001-.979l.139-.018a31.03263 31.03263 0 0 0 4.973-1.414 23.87108 23.87108 0 0 1 5.768-1.503l.195-.017a.4895.4895 0 0 1 -.001.979m7.203 9.042a1.87808 1.87808 0 0 1 1.299 2.015 2.28691 2.28691 0 0 1 -2.196 2.228 2.82043 2.82043 0 0 1 -.985-.216c-.009.431-.021.856-.03 1.278l1.604.712a1.80874 1.80874 0 0 1 1.106 1.76 1.86336 1.86336 0 0 1 -1.789 1.769 2.70151 2.70151 0 0 1 -1.017-.296c-.009.367-.016.713-.025 1.035.587.266 1.133.515 1.321.599.411.181.737.614.536.955-.186.313-.625.307-1.027.14-.161-.069-.485-.212-.861-.381-.02.768-.029 1.243-.029 1.275 0 .222-.084.276-.195.276-.112 0-.195-.056-.193-.277 0-.035-.011-.58-.028-1.474-.599-.272-1.224-.559-1.518-.7a1.76894 1.76894 0 0 1 -1.13995-1.521 1.54322 1.54322 0 0 1 1.596-1.603 2.3391 2.3391 0 0 1 .99.234c-.008-.385-.014-.785-.023-1.192l-1.462-.613a2.11805 2.11805 0 0 1 -1.43-2.016 2.00485 2.00485 0 0 1 2.031-2.037 3.10626 3.10626 0 0 1 .767.076q-.015-.762-.031-1.518c-.165-.069-.334-.136-.511-.206-2.026-.776-2.657-1.694-2.661-2.727a2.28333 2.28333 0 0 1 2.402-2.395 2.62055 2.62055 0 0 1 .664.083c-.012-.634-.024-1.216-.035-1.715-.456-.209-.958-.442-1.48005-.685a2.97694 2.97694 0 0 1 -1.987-2.314 2.03 2.03 0 0 1 .749-1.6 1.06419 1.06419 0 0 1 1.413-.215.86951.86951 0 0 1 .02295 1.112c-.20794.228-.439.297-.43994.755-.002.454.432.676.939.9.246.109.498.22.748.329-.004-.173-.006-.273-.006-.273a2.45356 2.45356 0 0 0 -.276-.277.273.273 0 0 1 -.082-.249v-.555c.001-.221.168-.305.333-.22.167.083.637.334.637.334h.111s.472-.25.639-.331a.21717.21717 0 0 1 .331.221l-.001.555a.278.278 0 0 1 -.083.249 2.517 2.517 0 0 0 -.277.276s-.009.308-.02106.836c.643.278 1.19.515 1.51.655a2.67557 2.67557 0 0 1 1.918 2.534 2.32821 2.32821 0 0 1 -2.219 2.204 4.75387 4.75387 0 0 1 -1.337-.138c-.011.502-.025 1.014-.037 1.542.638.283 1.278.573 1.765.807m2.923-10 .195.017a23.71746 23.71746 0 0 1 5.76 1.527 31.55011 31.55011 0 0 0 4.967 1.434l.139.017a.49.49 0 1 1 -.001.98h-.102a26.41564 26.41564 0 0 1 -4.929-1.376 26.246 26.246 0 0 0 -5.873-1.602l-.158-.018a.48951.48951 0 1 1 .002-.979m.123 3.472.194.02a21.64277 21.64277 0 0 1 6.39 1.362 23.41794 23.41794 0 0 0 5.06 1.302l.137.02a.48951.48951 0 1 1 -.001.979h-.101a26.95815 26.95815 0 0 1 -4.912-1.23 23.20507 23.20507 0 0 0 -6.612-1.453l-.157-.02a.49.49 0 0 1 .002-.98m.08606 3.446.194.02a20.348 20.348 0 0 1 6.519 1.037 35.08 35.08 0 0 0 5.613 1.399l.139.018a.49.49 0 1 1 -.001.98h-.102a29.26657 29.26657 0 0 1 -5.779-1.435 19.663 19.663 0 0 0 -6.427-1.021l-.15795-.02a.489.489 0 1 1 .002-.978m.10394 3.493.211-.028a19.654 19.654 0 0 1 7.02106.846 43.46259 43.46259 0 0 0 5.78 1.362l.137.017a.49.49 0 1 1 -.002.98h-.101a41.66937 41.66937 0 0 1 -6.463-1.529 16.534 16.534 0 0 0 -6.392-.658l-.194-.011a.4895.4895 0 1 1 .003-.979m.122 3.436.213-.025a20.15846 20.15846 0 0 1 7.075.531 41.0259 41.0259 0 0 0 6.445 1.436l.139.018a.48951.48951 0 1 1 -.003.979h-.1a39.82665 39.82665 0 0 1 -6.66705-1.493 19.44841 19.44841 0 0 0 -6.89294-.456l-.211-.01a.49.49 0 1 1 .002-.98m14.67505 6.138h-.102a44.00733 44.00733 0 0 1 -7.016-1.474 17.60514 17.60514 0 0 0 -7.242-.237l-.192.027a.4895.4895 0 1 1 .001-.979l.211-.028a18.492 18.492 0 0 1 7.316.238 44.57148 44.57148 0 0 0 6.89 1.455l.136.018a.49.49 0 0 1 -.002.98" fill="#007066"/><path d="m47.83716 31.44374a6.195 6.195 0 0 0 3.602-.998l21.92.004-.482-1.774-21.936-.003a4.0793 4.0793 0 0 1 -3.048.997h-.056a4.08207 4.08207 0 0 1 -3.049-.997h-21.728l-.499 1.773h21.728a6.19959 6.19959 0 0 0 3.604.998z" fill="#007066"/><path d="m89.66236 60.09485h.276a.8058.8058 0 0 1 .243.025.21276.21276 0 0 1 .103.08.1914.1914 0 0 1 .038.118.20177.20177 0 0 1 -.078.167.46331.46331 0 0 1 -.288.064h-.294zm0 1.302v-.64h.143a.30919.30919 0 0 1 .194.052 1.22087 1.22087 0 0 1 .254.35l.134.238h.297l-.183-.296a1.86842 1.86842 0 0 0 -.223-.298.43107.43107 0 0 0 -.129-.08.46583.46583 0 0 0 .314-.137.39858.39858 0 0 0 .117-.288.38618.38618 0 0 0 -.071-.22.35545.35545 0 0 0 -.189-.145 1.2494 1.2494 0 0 0 -.384-.043h-.518v1.507zm.943-1.792a1.06379 1.06379 0 0 1 .437.432 1.18746 1.18746 0 0 1 .157.586 1.17029 1.17029 0 0 1 -.154.581 1.08735 1.08735 0 0 1 -.43.431 1.18092 1.18092 0 0 1 -.582.155 1.16884 1.16884 0 0 1 -.581-.155 1.0846 1.0846 0 0 1 -.434-.431 1.16631 1.16631 0 0 1 .003-1.167 1.09043 1.09043 0 0 1 .438-.432 1.16268 1.16268 0 0 1 1.146 0m-1.261-.202a1.2872 1.2872 0 0 0 -.524.518 1.395 1.395 0 0 0 -.003 1.397 1.30035 1.30035 0 0 0 .518.519 1.3989 1.3989 0 0 0 1.394 0 1.29351 1.29351 0 0 0 .518-.519 1.40777 1.40777 0 0 0 -.003-1.397 1.27926 1.27926 0 0 0 -.523-.518 1.40668 1.40668 0 0 0 -1.377 0" fill="#fff"/></g></svg>